<?xml version="1.0" encoding="UTF-8"?> <svg xmlns="http://www.w3.org/2000/svg" width="267" height="20" viewBox="0 0 267 20" fill="none"> <path d="M4.37612 16.62C4.37612 17.2173 4.45078 17.656 4.60012 17.936C4.76812 18.1973 5.07612 18.384 5.52412 18.496C5.99078 18.608 6.71878 18.664 7.70812 18.664C7.76412 18.664 7.79212 18.72 7.79212 18.832C7.79212 18.944 7.76412 19 7.70812 19C6.94278 19 6.34545 18.9907 5.91612 18.972L3.48012 18.944L1.60412 18.972C1.24945 18.9907 0.77345 19 0.176117 19C0.138784 19 0.120117 18.944 0.120117 18.832C0.120117 18.72 0.138784 18.664 0.176117 18.664C0.885451 18.664 1.39878 18.6173 1.71612 18.524C2.05212 18.4307 2.27612 18.2533 2.38812 17.992C2.50012 17.712 2.55612 17.292 2.55612 16.732V3.768C2.55612 3.208 2.50012 2.79733 2.38812 2.536C2.27612 2.27467 2.05212 2.09733 1.71612 2.004C1.39878 1.892 0.885451 1.836 0.176117 1.836C0.138784 1.836 0.120117 1.78 0.120117 1.668C0.120117 1.556 0.138784 1.5 0.176117 1.5L1.57612 1.528C2.36012 1.56533 2.98545 1.584 3.45212 1.584C3.91878 1.584 4.44145 1.556 5.02012 1.5C5.24412 1.5 5.59878 1.49067 6.08412 1.472C6.56945 1.43467 6.98945 1.416 7.34412 1.416C9.06145 1.416 10.4335 1.79867 11.4601 2.564C12.5055 3.32933 13.0281 4.496 13.0281 6.064C13.0281 7.296 12.7201 8.332 12.1041 9.172C11.5068 10.012 10.7321 10.6373 9.78012 11.048C8.84678 11.4587 7.87612 11.664 6.86812 11.664C6.30812 11.664 5.85078 11.6173 5.49612 11.524C5.44012 11.524 5.41212 11.4773 5.41212 11.384C5.41212 11.328 5.42145 11.272 5.44012 11.216C5.47745 11.16 5.51478 11.1413 5.55212 11.16C5.85078 11.2347 6.18678 11.272 6.56012 11.272C7.79212 11.272 8.82812 10.8707 9.66812 10.068C10.5268 9.26533 10.9561 8.108 10.9561 6.596C10.9561 5.12133 10.5548 3.964 9.75212 3.124C8.94945 2.26533 7.92278 1.836 6.67212 1.836C6.00012 1.836 5.51478 1.87333 5.21612 1.948C4.91745 2.02267 4.70278 2.2 4.57212 2.48C4.44145 2.74133 4.37612 3.18933 4.37612 3.824V16.62Z" fill="black"></path> <path d="M24.4512 19.336C22.7152 19.336 21.1659 18.9347 19.8032 18.132C18.4592 17.3107 17.4139 16.2093 16.6672 14.828C15.9392 13.428 15.5752 11.9067 15.5752 10.264C15.5752 8.34133 16.0606 6.69867 17.0312 5.336C18.0019 3.95467 19.2432 2.91867 20.7552 2.228C22.2859 1.53733 23.8446 1.192 25.4312 1.192C27.2046 1.192 28.7632 1.612 30.1072 2.452C31.4512 3.27333 32.4779 4.36533 33.1872 5.728C33.9152 7.09067 34.2792 8.53733 34.2792 10.068C34.2792 11.7667 33.8312 13.3253 32.9352 14.744C32.0392 16.1627 30.8352 17.2827 29.3232 18.104C27.8299 18.9253 26.2059 19.336 24.4512 19.336ZM25.4312 18.748C26.7006 18.748 27.8392 18.44 28.8472 17.824C29.8739 17.208 30.6766 16.3027 31.2552 15.108C31.8526 13.9133 32.1512 12.4947 32.1512 10.852C32.1512 9.09733 31.8246 7.53867 31.1712 6.176C30.5179 4.81333 29.5939 3.74933 28.3992 2.984C27.2232 2.21867 25.8419 1.836 24.2552 1.836C22.2019 1.836 20.5966 2.49866 19.4392 3.824C18.2819 5.14933 17.7032 6.96933 17.7032 9.284C17.7032 11.0387 18.0299 12.644 18.6832 14.1C19.3366 15.5373 20.2512 16.676 21.4272 17.516C22.6032 18.3373 23.9379 18.748 25.4312 18.748Z" fill="black"></path> <path d="M40.8207 16.62C40.8207 17.1613 40.8767 17.5533 40.9887 17.796C41.1007 18.0387 41.3061 18.2067 41.6047 18.3C41.9034 18.3747 42.3887 18.412 43.0607 18.412H46.1127C47.1767 18.412 48.0261 18.0853 48.6607 17.432C49.2954 16.7787 49.7154 15.8733 49.9207 14.716C49.9207 14.66 49.9674 14.6413 50.0607 14.66C50.1727 14.66 50.2287 14.688 50.2287 14.744C50.0607 16.2933 49.9767 17.572 49.9767 18.58C49.9767 18.7293 49.9487 18.8413 49.8927 18.916C49.8367 18.972 49.7247 19 49.5567 19H36.6207C36.5834 19 36.5647 18.944 36.5647 18.832C36.5647 18.72 36.5834 18.664 36.6207 18.664C37.3301 18.664 37.8434 18.6173 38.1607 18.524C38.4967 18.4307 38.7207 18.2533 38.8327 17.992C38.9447 17.712 39.0007 17.292 39.0007 16.732V3.768C39.0007 3.208 38.9447 2.79733 38.8327 2.536C38.7207 2.27467 38.4967 2.09733 38.1607 2.004C37.8434 1.892 37.3301 1.836 36.6207 1.836C36.5834 1.836 36.5647 1.78 36.5647 1.668C36.5647 1.556 36.5834 1.5 36.6207 1.5L37.9927 1.528C38.7767 1.56533 39.4114 1.584 39.8967 1.584C40.4194 1.584 41.0727 1.56533 41.8567 1.528L43.2007 1.5C43.2567 1.5 43.2847 1.556 43.2847 1.668C43.2847 1.78 43.2567 1.836 43.2007 1.836C42.5101 1.836 41.9967 1.892 41.6607 2.004C41.3434 2.09733 41.1194 2.284 40.9887 2.564C40.8767 2.82533 40.8207 3.236 40.8207 3.796V16.62Z" fill="black"></path> <path d="M56.1424 16.732C56.1424 17.292 56.1984 17.712 56.3104 17.992C56.4224 18.2533 56.6371 18.4307 56.9544 18.524C57.2904 18.6173 57.8131 18.664 58.5224 18.664C58.5784 18.664 58.6064 18.72 58.6064 18.832C58.6064 18.944 58.5784 19 58.5224 19C57.9624 19 57.5144 18.9907 57.1784 18.972L55.1904 18.944L53.2584 18.972C52.9224 18.9907 52.4651 19 51.8864 19C51.8304 19 51.8024 18.944 51.8024 18.832C51.8024 18.72 51.8304 18.664 51.8864 18.664C52.5958 18.664 53.1091 18.6173 53.4264 18.524C53.7624 18.4307 53.9864 18.2533 54.0984 17.992C54.2291 17.712 54.2944 17.292 54.2944 16.732V3.768C54.2944 3.208 54.2291 2.79733 54.0984 2.536C53.9864 2.27467 53.7624 2.09733 53.4264 2.004C53.1091 1.892 52.5958 1.836 51.8864 1.836C51.8304 1.836 51.8024 1.78 51.8024 1.668C51.8024 1.556 51.8304 1.5 51.8864 1.5L53.2584 1.528C54.0424 1.56533 54.6864 1.584 55.1904 1.584C55.7504 1.584 56.4224 1.56533 57.2064 1.528L58.5224 1.5C58.5784 1.5 58.6064 1.556 58.6064 1.668C58.6064 1.78 58.5784 1.836 58.5224 1.836C57.8318 1.836 57.3184 1.892 56.9824 2.004C56.6651 2.116 56.4411 2.312 56.3104 2.592C56.1984 2.85333 56.1424 3.264 56.1424 3.824V16.732Z" fill="black"></path> <path d="M79.5793 1.5C79.6353 1.5 79.6633 1.556 79.6633 1.668C79.6633 1.78 79.6353 1.836 79.5793 1.836C78.7953 1.836 78.226 2.05067 77.8713 2.48C77.5166 2.90933 77.3393 3.60933 77.3393 4.58V19.336C77.3393 19.3733 77.2926 19.4013 77.1993 19.42C77.106 19.4387 77.0406 19.4293 77.0033 19.392L64.1233 3.796L63.8713 3.516V15.948C63.8713 16.9187 64.0393 17.6187 64.3753 18.048C64.73 18.4587 65.29 18.664 66.0553 18.664C66.1113 18.664 66.1393 18.72 66.1393 18.832C66.1393 18.944 66.1113 19 66.0553 19C65.5886 19 65.234 18.9907 64.9913 18.972L63.5913 18.944L62.1633 18.972C61.902 18.9907 61.5193 19 61.0153 19C60.978 19 60.9593 18.944 60.9593 18.832C60.9593 18.72 60.978 18.664 61.0153 18.664C61.818 18.664 62.3873 18.4587 62.7233 18.048C63.0593 17.6187 63.2273 16.9187 63.2273 15.948V2.844C62.4993 2.172 61.762 1.836 61.0153 1.836C60.9593 1.836 60.9313 1.78 60.9313 1.668C60.9313 1.556 60.9593 1.5 61.0153 1.5L62.0513 1.528C62.2753 1.54667 62.5833 1.556 62.9753 1.556C63.386 1.556 63.722 1.54667 63.9833 1.528C64.2446 1.50933 64.45 1.5 64.5993 1.5C64.7486 1.5 64.8513 1.53733 64.9073 1.612C64.982 1.668 65.094 1.808 65.2433 2.032C65.4673 2.368 65.6913 2.676 65.9153 2.956L76.6953 16.2V4.58C76.6953 3.60933 76.5273 2.90933 76.1913 2.48C75.874 2.05067 75.3326 1.836 74.5673 1.836C74.53 1.836 74.5113 1.78 74.5113 1.668C74.5113 1.556 74.53 1.5 74.5673 1.5L75.6593 1.528C76.2193 1.56533 76.6766 1.584 77.0313 1.584C77.3673 1.584 77.834 1.56533 78.4313 1.528L79.5793 1.5Z" fill="black"></path> <path d="M99.7831 18.664C99.8577 18.664 99.8951 18.72 99.8951 18.832C99.8951 18.944 99.8577 19 99.7831 19C99.4284 19 98.8777 18.9813 98.1311 18.944C97.3844 18.9067 96.843 18.888 96.507 18.888C96.0964 18.888 95.5737 18.9067 94.939 18.944C94.3417 18.9813 93.8844 19 93.5671 19C93.4924 19 93.4551 18.944 93.4551 18.832C93.4551 18.72 93.4924 18.664 93.5671 18.664C94.2577 18.664 94.7617 18.5987 95.0791 18.468C95.3964 18.3373 95.5551 18.1133 95.5551 17.796C95.5551 17.5347 95.4337 17.1333 95.1911 16.592L92.6991 11.3H86.035L84.271 15.444C84.0097 16.0787 83.8791 16.592 83.8791 16.984C83.8791 17.5627 84.103 17.992 84.551 18.272C85.0177 18.5333 85.7084 18.664 86.6231 18.664C86.7164 18.664 86.7631 18.72 86.7631 18.832C86.7631 18.944 86.7164 19 86.6231 19C86.2871 19 85.8017 18.9813 85.1671 18.944C84.4577 18.9067 83.8417 18.888 83.3191 18.888C82.8337 18.888 82.2737 18.9067 81.6391 18.944C81.0791 18.9813 80.6124 19 80.2391 19C80.1457 19 80.0991 18.944 80.0991 18.832C80.0991 18.72 80.1457 18.664 80.2391 18.664C80.7617 18.664 81.2004 18.5707 81.5551 18.384C81.9284 18.1787 82.2737 17.8333 82.591 17.348C82.927 16.844 83.2911 16.1253 83.6831 15.192L89.591 1.248C89.6284 1.192 89.6937 1.164 89.7871 1.164C89.8804 1.164 89.9364 1.192 89.9551 1.248L96.5631 15.164C97.1977 16.5453 97.7391 17.4787 98.187 17.964C98.635 18.4307 99.167 18.664 99.7831 18.664ZM86.259 10.74H92.4471L89.1711 3.824L86.259 10.74Z" fill="black"></path> <path d="M124.763 1.5C124.838 1.5 124.875 1.556 124.875 1.668C124.875 1.78 124.838 1.836 124.763 1.836C124.203 1.836 123.709 1.98533 123.279 2.284C122.85 2.58267 122.421 3.152 121.991 3.992L114.179 18.972C114.161 19.0467 114.058 19.084 113.871 19.084C113.703 19.084 113.61 19.0467 113.591 18.972L111.855 11.048L107.767 18.972C107.711 19.0467 107.599 19.084 107.431 19.084C107.263 19.084 107.17 19.0467 107.151 18.972L103.875 3.824C103.726 3.096 103.521 2.58267 103.259 2.284C102.998 1.98533 102.625 1.836 102.139 1.836C102.083 1.836 102.055 1.78 102.055 1.668C102.055 1.556 102.083 1.5 102.139 1.5L103.175 1.528C103.661 1.56533 104.034 1.584 104.295 1.584C104.781 1.584 105.341 1.56533 105.975 1.528L106.983 1.5C107.058 1.5 107.095 1.556 107.095 1.668C107.095 1.78 107.058 1.836 106.983 1.836C106.479 1.836 106.097 1.92 105.835 2.088C105.574 2.256 105.443 2.55467 105.443 2.984C105.443 3.22667 105.462 3.41333 105.499 3.544L108.439 16.648L111.687 10.264L110.287 3.824C110.138 3.07733 109.942 2.564 109.699 2.284C109.475 1.98533 109.121 1.836 108.635 1.836C108.579 1.836 108.551 1.78 108.551 1.668C108.551 1.556 108.579 1.5 108.635 1.5L109.643 1.528C110.129 1.56533 110.493 1.584 110.735 1.584C111.071 1.584 111.463 1.56533 111.911 1.528L112.611 1.5C112.705 1.5 112.751 1.556 112.751 1.668C112.751 1.78 112.705 1.836 112.611 1.836C112.294 1.836 112.07 1.87333 111.939 1.948C111.827 2.02267 111.771 2.172 111.771 2.396C111.771 2.62 111.827 3.00267 111.939 3.544L112.975 8.192L115.215 3.824C115.533 3.22667 115.691 2.76933 115.691 2.452C115.691 2.04133 115.365 1.836 114.711 1.836C114.655 1.836 114.627 1.78 114.627 1.668C114.627 1.556 114.655 1.5 114.711 1.5L115.355 1.528C115.729 1.56533 116.065 1.584 116.363 1.584C116.643 1.584 117.007 1.56533 117.455 1.528L118.463 1.5C118.519 1.5 118.547 1.556 118.547 1.668C118.547 1.78 118.519 1.836 118.463 1.836C117.922 1.836 117.446 1.98533 117.035 2.284C116.625 2.58267 116.195 3.152 115.747 3.992L113.143 9.032L114.851 16.676L121.431 3.824C121.674 3.33867 121.795 2.97467 121.795 2.732C121.795 2.43333 121.655 2.20933 121.375 2.06C121.114 1.91067 120.694 1.836 120.115 1.836C120.041 1.836 120.003 1.78 120.003 1.668C120.003 1.556 120.041 1.5 120.115 1.5L121.095 1.528C121.655 1.56533 122.15 1.584 122.579 1.584C122.878 1.584 123.251 1.56533 123.699 1.528L124.763 1.5Z" fill="black"></path> <path d="M136.307 18.664C136.382 18.664 136.419 18.72 136.419 18.832C136.419 18.944 136.382 19 136.307 19C136.027 19 135.607 18.9813 135.047 18.944C134.375 18.9067 133.852 18.888 133.479 18.888C133.087 18.888 132.592 18.9067 131.995 18.944C131.435 18.9813 131.024 19 130.763 19C130.707 19 130.679 18.944 130.679 18.832C130.679 18.72 130.707 18.664 130.763 18.664C131.454 18.664 131.93 18.58 132.191 18.412C132.471 18.2253 132.611 17.8987 132.611 17.432C132.611 17.1147 132.592 16.8533 132.555 16.648L131.687 11.3H126.339L124.155 15.304C123.576 16.3867 123.287 17.1707 123.287 17.656C123.287 18.048 123.436 18.3187 123.735 18.468C124.034 18.5987 124.491 18.664 125.107 18.664C125.182 18.664 125.21 18.72 125.191 18.832C125.191 18.944 125.154 19 125.079 19C124.874 19 124.454 18.9813 123.819 18.944C123.11 18.9067 122.559 18.888 122.167 18.888C121.775 18.888 121.318 18.9067 120.795 18.944C120.272 18.9813 119.871 19 119.591 19C119.516 19 119.479 18.944 119.479 18.832C119.479 18.72 119.516 18.664 119.591 18.664C120.132 18.664 120.711 18.4307 121.327 17.964C121.943 17.4787 122.578 16.676 123.231 15.556L131.239 1.22C131.276 1.164 131.342 1.136 131.435 1.136C131.603 1.136 131.706 1.18267 131.743 1.276L134.207 16.648C134.3 17.2267 134.403 17.6467 134.515 17.908C134.627 18.1693 134.814 18.3653 135.075 18.496C135.355 18.608 135.766 18.664 136.307 18.664ZM126.647 10.74H131.603L130.483 3.768L126.647 10.74Z" fill="black"></path> <path d="M142.456 19.336C141.821 19.336 141.215 19.2613 140.636 19.112C140.057 18.9813 139.451 18.7387 138.816 18.384C138.667 18.2907 138.611 18.1133 138.648 17.852L139.04 14.156C139.04 14.0627 139.087 14.016 139.18 14.016C139.292 14.016 139.348 14.0627 139.348 14.156C139.385 15.5 139.712 16.6293 140.328 17.544C140.963 18.44 141.905 18.888 143.156 18.888C144.071 18.888 144.873 18.6267 145.564 18.104C146.273 17.5627 146.721 16.732 146.908 15.612C146.964 15.2947 146.992 15.0147 146.992 14.772C146.992 13.8573 146.721 13.1013 146.18 12.504C145.657 11.888 144.892 11.2347 143.884 10.544C143.193 10.04 142.643 9.62 142.232 9.284C141.84 8.92933 141.504 8.50933 141.224 8.024C140.944 7.53867 140.804 6.97867 140.804 6.344C140.804 6.08267 140.832 5.812 140.888 5.532C141.075 4.59867 141.448 3.80533 142.008 3.152C142.587 2.49867 143.277 2.01333 144.08 1.696C144.883 1.36 145.713 1.192 146.572 1.192C147.561 1.192 148.569 1.416 149.596 1.864C149.839 1.99467 149.951 2.15333 149.932 2.34L149.568 5.448C149.568 5.52267 149.512 5.56 149.4 5.56C149.307 5.56 149.251 5.52267 149.232 5.448C149.157 4.34667 148.887 3.432 148.42 2.704C147.953 1.976 147.188 1.612 146.124 1.612C145.321 1.612 144.649 1.81733 144.108 2.228C143.585 2.62 143.193 3.11467 142.932 3.712C142.689 4.30933 142.568 4.89733 142.568 5.476C142.568 6.05467 142.708 6.57733 142.988 7.044C143.268 7.492 143.604 7.87467 143.996 8.192C144.388 8.50933 144.929 8.91067 145.62 9.396C146.684 10.1053 147.496 10.7773 148.056 11.412C148.616 12.0467 148.896 12.84 148.896 13.792C148.896 14.128 148.877 14.3893 148.84 14.576C148.597 15.9387 147.916 17.0773 146.796 17.992C145.676 18.888 144.229 19.336 142.456 19.336Z" fill="black"></path> <path d="M169.866 1.5C169.903 1.5 169.922 1.556 169.922 1.668C169.922 1.78 169.903 1.836 169.866 1.836C169.268 1.836 168.82 1.892 168.522 2.004C168.223 2.09733 167.999 2.27467 167.85 2.536C167.7 2.79733 167.579 3.208 167.486 3.768L165.19 16.732C165.134 17.068 165.106 17.3573 165.106 17.6C165.106 18.0293 165.227 18.3187 165.47 18.468C165.731 18.5987 166.207 18.664 166.898 18.664C166.954 18.664 166.982 18.72 166.982 18.832C166.982 18.944 166.954 19 166.898 19C166.431 19 166.058 18.9907 165.778 18.972L164.098 18.944L162.418 18.972C162.119 18.9907 161.718 19 161.214 19C161.176 19 161.158 18.944 161.158 18.832C161.158 18.72 161.176 18.664 161.214 18.664C161.83 18.664 162.278 18.6173 162.558 18.524C162.856 18.4307 163.08 18.2533 163.23 17.992C163.379 17.712 163.5 17.292 163.594 16.732L164.742 10.18H155.754L154.578 16.732C154.503 17.2173 154.466 17.5253 154.466 17.656C154.466 18.048 154.587 18.3187 154.83 18.468C155.091 18.5987 155.567 18.664 156.258 18.664C156.314 18.664 156.342 18.72 156.342 18.832C156.342 18.944 156.314 19 156.258 19C155.772 19 155.38 18.9907 155.082 18.972L153.374 18.944L151.722 18.972C151.442 18.9907 151.059 19 150.574 19C150.518 19 150.49 18.944 150.49 18.832C150.49 18.72 150.518 18.664 150.574 18.664C151.171 18.664 151.619 18.6173 151.918 18.524C152.235 18.4307 152.468 18.2533 152.618 17.992C152.767 17.712 152.888 17.292 152.982 16.732L155.278 3.768C155.334 3.39467 155.362 3.10533 155.362 2.9C155.362 2.47066 155.231 2.19067 154.97 2.06C154.727 1.91067 154.26 1.836 153.57 1.836C153.532 1.836 153.514 1.78 153.514 1.668C153.514 1.556 153.532 1.5 153.57 1.5L154.746 1.528C155.418 1.56533 155.959 1.584 156.37 1.584C156.818 1.584 157.396 1.56533 158.106 1.528L159.254 1.5C159.291 1.5 159.31 1.556 159.31 1.668C159.31 1.78 159.291 1.836 159.254 1.836C158.656 1.836 158.208 1.892 157.91 2.004C157.63 2.116 157.415 2.312 157.266 2.592C157.116 2.85333 156.986 3.264 156.874 3.824L155.838 9.592H164.854L165.862 3.824C165.936 3.33867 165.974 3.03067 165.974 2.9C165.974 2.48933 165.843 2.20933 165.582 2.06C165.339 1.91067 164.882 1.836 164.21 1.836C164.154 1.836 164.126 1.78 164.126 1.668C164.126 1.556 164.154 1.5 164.21 1.5L165.358 1.528C166.03 1.56533 166.58 1.584 167.01 1.584C167.42 1.584 167.98 1.56533 168.69 1.528L169.866 1.5Z" fill="black"></path> <path d="M169.611 19C169.555 19 169.527 18.944 169.527 18.832C169.527 18.72 169.555 18.664 169.611 18.664C170.208 18.664 170.647 18.6173 170.927 18.524C171.226 18.4307 171.45 18.2533 171.599 17.992C171.748 17.712 171.87 17.292 171.963 16.732L174.259 3.768C174.334 3.28267 174.371 2.99333 174.371 2.9C174.371 2.47066 174.24 2.19067 173.979 2.06C173.718 1.91067 173.242 1.836 172.551 1.836C172.495 1.836 172.467 1.78 172.467 1.668C172.467 1.556 172.495 1.5 172.551 1.5L173.755 1.528C174.427 1.56533 174.968 1.584 175.379 1.584C175.864 1.584 176.462 1.56533 177.171 1.528L178.291 1.5C178.328 1.5 178.347 1.556 178.347 1.668C178.347 1.78 178.328 1.836 178.291 1.836C177.694 1.836 177.246 1.892 176.947 2.004C176.667 2.116 176.452 2.312 176.303 2.592C176.154 2.85333 176.023 3.264 175.911 3.824L173.615 16.732C173.559 17.0867 173.531 17.3853 173.531 17.628C173.531 18.0387 173.652 18.3187 173.895 18.468C174.156 18.5987 174.642 18.664 175.351 18.664C175.388 18.664 175.407 18.72 175.407 18.832C175.407 18.944 175.388 19 175.351 19C174.866 19 174.483 18.9907 174.203 18.972L172.467 18.944L170.815 18.972C170.535 18.9907 170.134 19 169.611 19Z" fill="black"></path> <path d="M196.9 1.5C196.938 1.5 196.956 1.556 196.956 1.668C196.956 1.78 196.938 1.836 196.9 1.836C196.228 1.836 195.687 2.05067 195.276 2.48C194.884 2.89067 194.614 3.56267 194.464 4.496L191.832 19.28C191.832 19.3173 191.804 19.3453 191.748 19.364C191.711 19.4013 191.664 19.42 191.608 19.42C191.496 19.42 191.431 19.3827 191.412 19.308L183.32 3.796L183.152 3.488L180.996 16.032C180.922 16.4053 180.884 16.7693 180.884 17.124C180.884 17.6653 181.006 18.0573 181.248 18.3C181.491 18.5427 181.883 18.664 182.424 18.664C182.462 18.664 182.48 18.72 182.48 18.832C182.48 18.944 182.462 19 182.424 19C182.032 19 181.734 18.9907 181.528 18.972L180.212 18.944L179.008 18.972C178.766 18.9907 178.43 19 178 19C177.944 19 177.916 18.944 177.916 18.832C177.916 18.72 177.944 18.664 178 18.664C178.672 18.664 179.204 18.4587 179.596 18.048C179.988 17.6373 180.259 16.9653 180.408 16.032L182.76 2.844C182.238 2.172 181.65 1.836 180.996 1.836C180.94 1.836 180.912 1.78 180.912 1.668C180.912 1.556 180.94 1.5 180.996 1.5L181.976 1.528C182.2 1.54667 182.49 1.556 182.844 1.556C183.143 1.556 183.395 1.54667 183.6 1.528C183.824 1.50933 183.983 1.5 184.076 1.5C184.188 1.5 184.272 1.53733 184.328 1.612C184.384 1.68667 184.45 1.82667 184.524 2.032C184.543 2.088 184.58 2.20933 184.636 2.396C184.711 2.58267 184.795 2.76933 184.888 2.956L191.804 16.312L193.876 4.496C193.951 4.12267 193.988 3.75867 193.988 3.404C193.988 2.86267 193.867 2.47067 193.624 2.228C193.382 1.96667 192.999 1.836 192.476 1.836C192.42 1.836 192.392 1.78 192.392 1.668C192.392 1.556 192.42 1.5 192.476 1.5L193.316 1.528C193.839 1.56533 194.287 1.584 194.66 1.584C194.959 1.584 195.37 1.56533 195.892 1.528L196.9 1.5Z" fill="black"></path> <path d="M205.142 19.336C203.556 19.336 202.193 19.0373 201.054 18.44C199.934 17.8427 199.085 17.012 198.506 15.948C197.928 14.8653 197.638 13.6333 197.638 12.252C197.638 11.636 197.694 10.992 197.806 10.32C198.124 8.56533 198.814 6.99733 199.878 5.616C200.961 4.216 202.286 3.13333 203.854 2.368C205.441 1.584 207.121 1.192 208.894 1.192C209.678 1.192 210.406 1.28533 211.078 1.472C211.769 1.64 212.32 1.88267 212.73 2.2C212.842 2.312 212.898 2.424 212.898 2.536L212.87 2.844L212.618 5.952C212.6 6.02667 212.534 6.064 212.422 6.064C212.329 6.064 212.282 6.02667 212.282 5.952C212.17 4.608 211.722 3.58133 210.938 2.872C210.173 2.16267 209.118 1.808 207.774 1.808C205.702 1.808 203.966 2.48 202.566 3.824C201.166 5.168 200.261 6.99733 199.85 9.312C199.701 10.208 199.626 10.992 199.626 11.664C199.626 13.1013 199.878 14.3613 200.382 15.444C200.905 16.5267 201.633 17.3667 202.566 17.964C203.518 18.5427 204.62 18.832 205.87 18.832C206.673 18.832 207.298 18.748 207.746 18.58C208.213 18.3933 208.586 18.0667 208.866 17.6C209.146 17.1147 209.361 16.4053 209.51 15.472C209.641 14.6133 209.706 14.044 209.706 13.764C209.706 13.3907 209.632 13.12 209.482 12.952C209.352 12.7653 209.118 12.644 208.782 12.588C208.446 12.5133 207.942 12.476 207.27 12.476C207.233 12.476 207.196 12.4573 207.158 12.42C207.14 12.364 207.13 12.308 207.13 12.252C207.13 12.196 207.14 12.1493 207.158 12.112C207.196 12.056 207.233 12.028 207.27 12.028C208.521 12.1213 209.529 12.168 210.294 12.168C211.06 12.168 211.862 12.14 212.702 12.084C212.758 12.084 212.786 12.1493 212.786 12.28C212.805 12.4107 212.777 12.476 212.702 12.476C212.31 12.4573 212.021 12.5227 211.834 12.672C211.666 12.8027 211.526 13.0827 211.414 13.512C211.302 13.9413 211.153 14.688 210.966 15.752C210.836 16.5733 210.761 17.152 210.742 17.488C210.742 17.824 210.733 18.0667 210.714 18.216C210.696 18.328 210.668 18.4027 210.63 18.44C210.593 18.4587 210.509 18.496 210.378 18.552C208.381 19.0747 206.636 19.336 205.142 19.336Z" fill="black"></path> <path d="M217.543 19C217.487 19 217.459 18.944 217.459 18.832C217.459 18.72 217.487 18.664 217.543 18.664C218.177 18.664 218.644 18.6173 218.943 18.524C219.26 18.4307 219.493 18.2533 219.643 17.992C219.811 17.712 219.941 17.292 220.035 16.732L222.331 3.768C222.387 3.432 222.415 3.152 222.415 2.928C222.415 2.55467 222.303 2.30267 222.079 2.172C221.873 2.04133 221.481 1.976 220.903 1.976H220.231C219.129 1.976 218.252 2.29333 217.599 2.928C216.964 3.544 216.441 4.57067 216.031 6.008C216.031 6.04533 215.993 6.064 215.919 6.064C215.863 6.064 215.807 6.05467 215.751 6.036C215.695 5.99867 215.676 5.97067 215.695 5.952C215.844 5.48533 216.059 4.68267 216.339 3.544C216.619 2.38667 216.815 1.5 216.927 0.883999C216.945 0.827999 217.011 0.809333 217.123 0.828C217.235 0.828 217.281 0.855999 217.263 0.911999C217.207 1.304 217.571 1.5 218.355 1.5C219.736 1.556 221.444 1.584 223.479 1.584C224.431 1.584 225.485 1.56533 226.643 1.528L228.407 1.5C228.967 1.5 229.387 1.45333 229.667 1.36C229.947 1.26667 230.143 1.08 230.255 0.8C230.292 0.743999 230.357 0.725332 230.451 0.744C230.544 0.744 230.581 0.781333 230.563 0.855999C230.413 1.36 230.208 2.21867 229.947 3.432C229.685 4.62667 229.517 5.46667 229.443 5.952C229.424 6.008 229.359 6.036 229.247 6.036C229.153 6.01733 229.116 5.97067 229.135 5.896C229.228 5.28 229.275 4.776 229.275 4.384C229.275 3.52533 229.06 2.90933 228.631 2.536C228.22 2.16267 227.539 1.976 226.587 1.976H225.915C225.429 1.976 225.056 2.032 224.795 2.144C224.552 2.23733 224.365 2.41467 224.235 2.676C224.123 2.91867 224.02 3.30133 223.927 3.824L221.659 16.732C221.603 17.068 221.575 17.3573 221.575 17.6C221.575 18.0293 221.705 18.3187 221.967 18.468C222.247 18.5987 222.769 18.664 223.535 18.664C223.572 18.664 223.591 18.72 223.591 18.832C223.591 18.944 223.572 19 223.535 19C223.031 19 222.629 18.9907 222.331 18.972L220.511 18.944L218.775 18.972C218.476 18.9907 218.065 19 217.543 19Z" fill="black"></path> <path d="M236.64 19.336C235.352 19.336 234.241 19.0373 233.308 18.44C232.374 17.824 231.665 16.984 231.18 15.92C230.694 14.8373 230.452 13.624 230.452 12.28C230.452 11.608 230.508 10.9267 230.62 10.236C230.918 8.5 231.534 6.95067 232.468 5.588C233.401 4.20667 234.54 3.13333 235.884 2.368C237.228 1.584 238.646 1.192 240.14 1.192C241.465 1.192 242.604 1.5 243.556 2.116C244.508 2.71333 245.226 3.544 245.712 4.608C246.216 5.65333 246.468 6.83867 246.468 8.164C246.468 8.892 246.402 9.58267 246.272 10.236C245.954 11.9907 245.31 13.5587 244.34 14.94C243.388 16.3213 242.23 17.404 240.868 18.188C239.505 18.9533 238.096 19.336 236.64 19.336ZM237.816 18.608C239.44 18.608 240.83 18.0107 241.988 16.816C243.145 15.6213 243.948 13.9227 244.396 11.72C244.582 10.8053 244.676 9.88133 244.676 8.948C244.676 7.56667 244.452 6.344 244.004 5.28C243.556 4.216 242.902 3.38533 242.044 2.788C241.185 2.172 240.177 1.864 239.02 1.864C237.358 1.864 235.949 2.48 234.792 3.712C233.634 4.944 232.86 6.624 232.468 8.752C232.3 9.648 232.216 10.516 232.216 11.356C232.216 12.7187 232.43 13.9507 232.86 15.052C233.308 16.1533 233.952 17.0213 234.792 17.656C235.632 18.2907 236.64 18.608 237.816 18.608Z" fill="black"></path> <path d="M266.162 1.5C266.199 1.5 266.218 1.556 266.218 1.668C266.218 1.78 266.199 1.836 266.162 1.836C265.49 1.836 264.949 2.05067 264.538 2.48C264.146 2.89067 263.875 3.56267 263.726 4.496L261.094 19.28C261.094 19.3173 261.066 19.3453 261.01 19.364C260.973 19.4013 260.926 19.42 260.87 19.42C260.758 19.42 260.693 19.3827 260.674 19.308L252.582 3.796L252.414 3.488L250.258 16.032C250.183 16.4053 250.146 16.7693 250.146 17.124C250.146 17.6653 250.267 18.0573 250.51 18.3C250.753 18.5427 251.145 18.664 251.686 18.664C251.723 18.664 251.742 18.72 251.742 18.832C251.742 18.944 251.723 19 251.686 19C251.294 19 250.995 18.9907 250.79 18.972L249.474 18.944L248.27 18.972C248.027 18.9907 247.691 19 247.262 19C247.206 19 247.178 18.944 247.178 18.832C247.178 18.72 247.206 18.664 247.262 18.664C247.934 18.664 248.466 18.4587 248.858 18.048C249.25 17.6373 249.521 16.9653 249.67 16.032L252.022 2.844C251.499 2.172 250.911 1.836 250.258 1.836C250.202 1.836 250.174 1.78 250.174 1.668C250.174 1.556 250.202 1.5 250.258 1.5L251.238 1.528C251.462 1.54667 251.751 1.556 252.106 1.556C252.405 1.556 252.657 1.54667 252.862 1.528C253.086 1.50933 253.245 1.5 253.338 1.5C253.45 1.5 253.534 1.53733 253.59 1.612C253.646 1.68667 253.711 1.82667 253.786 2.032C253.805 2.088 253.842 2.20933 253.898 2.396C253.973 2.58267 254.057 2.76933 254.15 2.956L261.066 16.312L263.138 4.496C263.213 4.12267 263.25 3.75867 263.25 3.404C263.25 2.86267 263.129 2.47067 262.886 2.228C262.643 1.96667 262.261 1.836 261.738 1.836C261.682 1.836 261.654 1.78 261.654 1.668C261.654 1.556 261.682 1.5 261.738 1.5L262.578 1.528C263.101 1.56533 263.549 1.584 263.922 1.584C264.221 1.584 264.631 1.56533 265.154 1.528L266.162 1.5Z" fill="black"></path> </svg> 